<svg width="46" height="32" viewBox="0 0 46 32" fill="none" xmlns="http://www.w3.org/2000/svg">
<rect x="0.5" y="0.5" width="45" height="31" rx="5.5" fill="white"/>
<path fill-rule="evenodd" clip-rule="evenodd" d="M12.6938 11.1229C12.3071 11.5921 11.6882 11.9622 11.0694 11.9093C10.9921 11.2749 11.295 10.6008 11.6496 10.1845C12.0363 9.7021 12.7132 9.35846 13.2611 9.33203C13.3255 9.99287 13.0741 10.6405 12.6938 11.1229ZM13.2546 12.0349C12.7094 12.0027 12.212 12.2029 11.8102 12.3647C11.5516 12.4688 11.3326 12.5569 11.1661 12.5569C10.9791 12.5569 10.7511 12.4641 10.4951 12.3598C10.1597 12.2232 9.77622 12.067 9.37406 12.0745C8.45228 12.0877 7.59496 12.623 7.1244 13.4755C6.15749 15.1805 6.873 17.7049 7.80768 19.0926C8.26534 19.7799 8.81326 20.5333 9.53521 20.5068C9.85283 20.4945 10.0813 20.3952 10.3178 20.2923C10.59 20.1739 10.8728 20.0509 11.3143 20.0509C11.7406 20.0509 12.011 20.1707 12.2706 20.2857C12.5174 20.395 12.7544 20.5001 13.1063 20.4936C13.8541 20.4804 14.3246 19.8063 14.7823 19.1191C15.2762 18.3814 15.4932 17.6615 15.5262 17.5523L15.53 17.5397C15.5292 17.5389 15.5231 17.536 15.5124 17.5309L15.5124 17.5309C15.3473 17.4534 14.0853 16.8612 14.0732 15.273C14.0611 13.9399 15.0742 13.2645 15.2336 13.1582L15.2337 13.1582C15.2434 13.1517 15.2499 13.1473 15.2528 13.1451C14.6082 12.167 13.6027 12.0613 13.2546 12.0349ZM18.4308 20.4209V10.1184H22.2017C24.1484 10.1184 25.5085 11.493 25.5085 13.5019C25.5085 15.5109 24.1226 16.8986 22.1502 16.8986H19.9907V20.4209H18.4308ZM19.9906 11.4665H21.7891C23.1427 11.4665 23.9162 12.2067 23.9162 13.5085C23.9162 14.8104 23.1427 15.5571 21.7826 15.5571H19.9906V11.4665ZM30.659 19.1852C30.2465 19.9914 29.3376 20.5002 28.3578 20.5002C26.9074 20.5002 25.8954 19.6147 25.8954 18.2798C25.8954 16.9581 26.8752 16.1982 28.6865 16.0858L30.6332 15.9669V15.3985C30.6332 14.5593 30.0982 14.1033 29.1442 14.1033C28.3578 14.1033 27.7841 14.5196 27.668 15.154H26.2628C26.3079 13.8191 27.5327 12.8477 29.1893 12.8477C30.9749 12.8477 32.1351 13.8059 32.1351 15.2928V20.4209H30.6912V19.1852H30.659ZM28.7767 19.2777C27.9451 19.2777 27.4165 18.868 27.4165 18.2402C27.4165 17.5925 27.9258 17.2159 28.8991 17.1564L30.6331 17.044V17.6256C30.6331 18.5904 29.8338 19.2777 28.7767 19.2777ZM36.9245 20.824C36.2992 22.6281 35.5837 23.2229 34.0624 23.2229C33.9464 23.2229 33.5597 23.2097 33.4694 23.1832V21.9475C33.5661 21.9607 33.8046 21.9739 33.9271 21.9739C34.6168 21.9739 35.0036 21.6765 35.2421 20.9033L35.3839 20.4474L32.741 12.9468H34.3719L36.209 19.0332H36.2412L38.0783 12.9468H39.6641L36.9245 20.824Z" fill="black"/>
<rect x="0.5" y="0.5" width="45" height="31" rx="5.5" stroke="#F2F4F7"/>
</svg>
