<svg xmlns="http://www.w3.org/2000/svg" width="20" height="20" viewBox="0 0 20 20" fill="none">
<path d="M4.16602 10.834H6.66602M1.66602 7.50065L3.33268 8.33398L4.39155 5.15738C4.61011 4.50169 4.71939 4.17385 4.92209 3.93147C5.10108 3.71743 5.33095 3.55175 5.5906 3.44963C5.88465 3.33398 6.23022 3.33398 6.92137 3.33398H13.0773C13.7685 3.33398 14.1141 3.33398 14.4081 3.44963C14.6678 3.55175 14.8976 3.71743 15.0766 3.93147C15.2793 4.17385 15.3886 4.50169 15.6071 5.15738L16.666 8.33398L18.3327 7.50065M13.3327 10.834H15.8327M5.66602 8.33398H14.3327C15.7328 8.33398 16.4329 8.33398 16.9677 8.60647C17.4381 8.84615 17.8205 9.2286 18.0602 9.69901C18.3327 10.2338 18.3327 10.9339 18.3327 12.334V14.584C18.3327 14.9712 18.3327 15.1648 18.3007 15.3258C18.1691 15.987 17.6523 16.5038 16.9912 16.6353C16.8302 16.6673 16.6366 16.6673 16.2493 16.6673H15.8327C14.9122 16.6673 14.166 15.9211 14.166 15.0007C14.166 14.7705 13.9795 14.584 13.7493 14.584H6.24935C6.01923 14.584 5.83268 14.7705 5.83268 15.0007C5.83268 15.9211 5.08649 16.6673 4.16602 16.6673H3.74935C3.36214 16.6673 3.16853 16.6673 3.00753 16.6353C2.34638 16.5038 1.82955 15.987 1.69804 15.3258C1.66602 15.1648 1.66602 14.9712 1.66602 14.584V12.334C1.66602 10.9339 1.66602 10.2338 1.9385 9.69901C2.17818 9.2286 2.56063 8.84615 3.03104 8.60647C3.56582 8.33398 4.26588 8.33398 5.66602 8.33398Z" stroke="#475467" stroke-width="1.66667" stroke-linecap="round" stroke-linejoin="round"/>
</svg>
