<svg width="66" height="66" viewBox="0 0 66 66" fill="none" xmlns="http://www.w3.org/2000/svg">
<rect x="5" y="5" width="56" height="56" rx="28" fill="#FACFB9"/>
<path d="M21.3359 27.168L30.8617 33.836C31.633 34.3759 32.0187 34.6459 32.4382 34.7505C32.8088 34.8429 33.1964 34.8429 33.567 34.7505C33.9865 34.6459 34.3722 34.3759 35.1435 33.836L44.6693 27.168M26.9359 42.3346H39.0693C41.0295 42.3346 42.0095 42.3346 42.7582 41.9532C43.4168 41.6176 43.9522 41.0822 44.2878 40.4236C44.6693 39.6749 44.6693 38.6948 44.6693 36.7346V29.268C44.6693 27.3078 44.6693 26.3277 44.2878 25.579C43.9522 24.9204 43.4168 24.385 42.7582 24.0494C42.0095 23.668 41.0295 23.668 39.0693 23.668H26.9359C24.9758 23.668 23.9957 23.668 23.247 24.0494C22.5884 24.385 22.053 24.9204 21.7174 25.579C21.3359 26.3277 21.3359 27.3078 21.3359 29.268V36.7346C21.3359 38.6948 21.3359 39.6749 21.7174 40.4236C22.053 41.0822 22.5884 41.6176 23.247 41.9532C23.9957 42.3346 24.9758 42.3346 26.9359 42.3346Z" stroke="#EF5E17" stroke-width="2" stroke-linecap="round" stroke-linejoin="round"/>
<rect x="5" y="5" width="56" height="56" rx="28" stroke="#FCDFD1" stroke-width="10"/>
</svg>
