<svg width="20" height="20" viewBox="0 0 20 20" fill="none" xmlns="http://www.w3.org/2000/svg">
<g clip-path="url(#clip0_809_35663)">
<path d="M6.66602 11.666C6.66602 11.666 7.91602 13.3327 9.99935 13.3327C12.0827 13.3327 13.3327 11.666 13.3327 11.666M12.4993 7.49935H12.5077M7.49935 7.49935H7.50768M18.3327 9.99935C18.3327 14.6017 14.6017 18.3327 9.99935 18.3327C5.39698 18.3327 1.66602 14.6017 1.66602 9.99935C1.66602 5.39698 5.39698 1.66602 9.99935 1.66602C14.6017 1.66602 18.3327 5.39698 18.3327 9.99935ZM12.916 7.49935C12.916 7.72947 12.7295 7.91602 12.4993 7.91602C12.2692 7.91602 12.0827 7.72947 12.0827 7.49935C12.0827 7.26923 12.2692 7.08268 12.4993 7.08268C12.7295 7.08268 12.916 7.26923 12.916 7.49935ZM7.91602 7.49935C7.91602 7.72947 7.72947 7.91602 7.49935 7.91602C7.26923 7.91602 7.08268 7.72947 7.08268 7.49935C7.08268 7.26923 7.26923 7.08268 7.49935 7.08268C7.72947 7.08268 7.91602 7.26923 7.91602 7.49935Z" stroke="#667085" stroke-width="1.66667" stroke-linecap="round" stroke-linejoin="round"/>
</g>
<defs>
<clipPath id="clip0_809_35663">
<rect width="20" height="20" fill="white"/>
</clipPath>
</defs>
</svg>
