<svg width="32" height="32" viewBox="0 0 32 32" fill="none" xmlns="http://www.w3.org/2000/svg">
<rect width="32" height="32" fill="#FACFB9"/>
<path d="M17.3307 9.51167V12.2654C17.3307 12.6387 17.3307 12.8254 17.4034 12.968C17.4673 13.0935 17.5693 13.1955 17.6947 13.2594C17.8373 13.332 18.024 13.332 18.3974 13.332H21.1511M21.3307 14.6575V19.4654C21.3307 20.5855 21.3307 21.1455 21.1127 21.5733C20.921 21.9497 20.615 22.2556 20.2387 22.4474C19.8109 22.6654 19.2508 22.6654 18.1307 22.6654H13.8641C12.744 22.6654 12.1839 22.6654 11.7561 22.4474C11.3798 22.2556 11.0738 21.9497 10.882 21.5733C10.6641 21.1455 10.6641 20.5855 10.6641 19.4654V12.532C10.6641 11.4119 10.6641 10.8519 10.882 10.4241C11.0738 10.0477 11.3798 9.74176 11.7561 9.55002C12.1839 9.33203 12.744 9.33203 13.8641 9.33203H16.0052C16.4944 9.33203 16.739 9.33203 16.9692 9.38729C17.1733 9.43628 17.3684 9.51709 17.5473 9.62675C17.7491 9.75043 17.9221 9.92339 18.268 10.2693L20.3935 12.3948C20.7394 12.7407 20.9123 12.9136 21.036 13.1155C21.1457 13.2944 21.2265 13.4895 21.2755 13.6936C21.3307 13.9237 21.3307 14.1683 21.3307 14.6575Z" stroke="#EF5E17" stroke-width="1.33333" stroke-linecap="round" stroke-linejoin="round"/>
</svg>
