<svg width="28" height="29" viewBox="0 0 28 29" fill="none" xmlns="http://www.w3.org/2000/svg">
<path d="M22.75 8.85986C22.75 7.69954 22.2891 6.58674 21.4686 5.76627C20.6481 4.9458 19.5353 4.48486 18.375 4.48486L9.625 4.48486C8.46468 4.48486 7.35188 4.9458 6.53141 5.76627C5.71094 6.58674 5.25 7.69954 5.25 8.85987L5.25 11.5724C4.26181 11.7741 3.37365 12.311 2.73586 13.0923C2.09806 13.8736 1.74979 14.8513 1.75 15.8599L1.75 24.6099C1.75 24.8419 1.84219 25.0645 2.00628 25.2286C2.17038 25.3927 2.39294 25.4849 2.625 25.4849C2.85707 25.4849 3.07963 25.3927 3.24372 25.2286C3.40782 25.0645 3.5 24.8419 3.5 24.6099L3.5 20.2349L24.5 20.2349L24.5 24.6099C24.5 24.8419 24.5922 25.0645 24.7563 25.2286C24.9204 25.3927 25.1429 25.4849 25.375 25.4849C25.6071 25.4849 25.8296 25.3927 25.9937 25.2286C26.1578 25.0645 26.25 24.8419 26.25 24.6099L26.25 15.8599C26.2502 14.8513 25.9019 13.8736 25.2641 13.0923C24.6263 12.311 23.7382 11.7741 22.75 11.5724L22.75 8.85986ZM24.5 18.4849L3.5 18.4849L3.5 15.8599C3.5 15.1637 3.77656 14.496 4.26885 14.0037C4.76113 13.5114 5.42881 13.2349 6.125 13.2349L21.875 13.2349C22.5712 13.2349 23.2389 13.5114 23.7312 14.0037C24.2234 14.496 24.5 15.1637 24.5 15.8599L24.5 18.4849ZM7 8.85986C7 8.16367 7.27656 7.49599 7.76884 7.00371C8.26113 6.51143 8.92881 6.23486 9.625 6.23486L18.375 6.23486C19.0712 6.23486 19.7389 6.51143 20.2312 7.00371C20.7234 7.49599 21 8.16367 21 8.85986L21 11.4849L19.25 11.4849L19.25 10.6099C19.25 10.3778 19.1578 10.1552 18.9937 9.99115C18.8296 9.82705 18.6071 9.73486 18.375 9.73486L15.75 9.73486C15.5179 9.73486 15.2954 9.82705 15.1313 9.99115C14.9672 10.1552 14.875 10.3778 14.875 10.6099L14.875 11.4849L13.125 11.4849L13.125 10.6099C13.125 10.3778 13.0328 10.1552 12.8687 9.99115C12.7046 9.82705 12.4821 9.73486 12.25 9.73486L9.625 9.73486C9.39294 9.73486 9.17038 9.82705 9.00628 9.99115C8.84219 10.1552 8.75 10.3778 8.75 10.6099L8.75 11.4849L7 11.4849L7 8.85986Z" fill="#F24E1E"/>
</svg>
