<svg width="35" height="35" viewBox="0 0 35 35" fill="none" xmlns="http://www.w3.org/2000/svg">
<path d="M26.25 7.65625C26.25 7.07609 26.0195 6.51969 25.6093 6.10945C25.1991 5.69922 24.6427 5.46875 24.0625 5.46875C23.4823 5.46875 22.9259 5.69922 22.5157 6.10945C22.1055 6.51969 21.875 7.07609 21.875 7.65625C21.875 8.23641 22.1055 8.79281 22.5157 9.20305C22.9259 9.61328 23.4823 9.84375 24.0625 9.84375C24.6427 9.84375 25.1991 9.61328 25.6093 9.20305C26.0195 8.79281 26.25 8.23641 26.25 7.65625ZM24.0625 3.28125C25.2228 3.28125 26.3356 3.74219 27.1561 4.56266C27.9766 5.38313 28.4375 6.49593 28.4375 7.65625C28.4375 8.81657 27.9766 9.92937 27.1561 10.7498C26.3356 11.5703 25.2228 12.0313 24.0625 12.0313C22.9022 12.0313 21.7894 11.5703 20.9689 10.7498C20.1484 9.92937 19.6875 8.81657 19.6875 7.65625C19.6875 6.49593 20.1484 5.38313 20.9689 4.56266C21.7894 3.74219 22.9022 3.28125 24.0625 3.28125ZM30.0781 14.2188C30.8033 14.2188 31.4988 14.5068 32.0116 15.0196C32.5244 15.5324 32.8125 16.2279 32.8125 16.9531L32.8125 17.2266C32.8125 17.5273 32.8125 19.2445 31.6597 20.9016C30.8317 22.0916 29.4908 23.1405 27.3952 23.6797C26.9737 22.8713 26.3103 22.2147 25.4975 21.8017C28.0459 21.5272 29.2567 20.5253 29.8638 19.6525C30.3521 18.937 30.617 18.0927 30.625 17.2266L30.625 16.9531C30.625 16.8081 30.5674 16.669 30.4648 16.5664C30.3623 16.4639 30.2232 16.4063 30.0781 16.4063L23.5156 16.4063C23.5156 15.6341 23.3702 14.8969 23.1055 14.2188L30.0781 14.2188ZM3.34031 20.9016C4.16828 22.0916 5.50922 23.1405 7.60484 23.6797C8.02628 22.8713 8.68973 22.2147 9.5025 21.8017C6.95406 21.5272 5.74328 20.5253 5.13625 19.6525C4.64794 18.937 4.383 18.0927 4.375 17.2266L4.375 16.9531C4.375 16.8081 4.43262 16.669 4.53518 16.5664C4.63774 16.4639 4.77684 16.4063 4.92188 16.4063L11.4844 16.4063C11.4844 15.6341 11.6298 14.8969 11.8945 14.2188L4.92188 14.2188C4.19668 14.2188 3.50118 14.5068 2.98838 15.0196C2.47559 15.5324 2.1875 16.2279 2.1875 16.9531L2.1875 17.2266C2.1875 17.5273 2.1875 19.2445 3.34031 20.9016ZM13.125 7.65625C13.125 7.07609 12.8945 6.51969 12.4843 6.10946C12.0741 5.69922 11.5177 5.46875 10.9375 5.46875C10.3573 5.46875 9.80094 5.69922 9.39071 6.10946C8.98047 6.51969 8.75 7.07609 8.75 7.65625C8.75 8.23641 8.98047 8.79281 9.39071 9.20305C9.80094 9.61328 10.3573 9.84375 10.9375 9.84375C11.5177 9.84375 12.0741 9.61328 12.4843 9.20305C12.8945 8.79281 13.125 8.23641 13.125 7.65625ZM10.9375 3.28125C12.0978 3.28125 13.2106 3.74219 14.0311 4.56266C14.8516 5.38313 15.3125 6.49593 15.3125 7.65625C15.3125 8.81657 14.8516 9.92937 14.0311 10.7498C13.2106 11.5703 12.0978 12.0313 10.9375 12.0313C9.77718 12.0313 8.66438 11.5703 7.84391 10.7498C7.02344 9.92937 6.5625 8.81657 6.5625 7.65625C6.5625 6.49593 7.02344 5.38313 7.84391 4.56266C8.66438 3.74219 9.77718 3.28125 10.9375 3.28125ZM17.5 14.2188C18.0802 14.2188 18.6366 14.4492 19.0468 14.8595C19.457 15.2697 19.6875 15.8261 19.6875 16.4063C19.6875 16.9864 19.457 17.5428 19.0468 17.953C18.6366 18.3633 18.0802 18.5938 17.5 18.5938C16.9198 18.5938 16.3634 18.3633 15.9532 17.953C15.543 17.5428 15.3125 16.9864 15.3125 16.4063C15.3125 15.8261 15.543 15.2697 15.9532 14.8595C16.3634 14.4492 16.9198 14.2188 17.5 14.2188ZM21.875 16.4063C21.875 15.2459 21.4141 14.1331 20.5936 13.3127C19.7731 12.4922 18.6603 12.0313 17.5 12.0313C16.3397 12.0313 15.2269 12.4922 14.4064 13.3127C13.5859 14.1331 13.125 15.2459 13.125 16.4063C13.125 17.5666 13.5859 18.6794 14.4064 19.4998C15.2269 20.3203 16.3397 20.7813 17.5 20.7813C18.6603 20.7813 19.7731 20.3203 20.5936 19.4998C21.4141 18.6794 21.875 17.5666 21.875 16.4063ZM26.25 25.7031C26.25 24.9779 25.9619 24.2824 25.4491 23.7696C24.9363 23.2568 24.2408 22.9688 23.5156 22.9688L11.4844 22.9688C11.1253 22.9688 10.7697 23.0395 10.438 23.1769C10.1062 23.3143 9.80479 23.5157 9.55088 23.7696C9.29697 24.0235 9.09556 24.325 8.95815 24.6567C8.82073 24.9885 8.75 25.344 8.75 25.7031L8.75 25.9766C8.75 26.2773 8.75 27.9945 9.90282 29.6516C11.1059 31.3808 13.3919 32.8125 17.5 32.8125C21.6081 32.8125 23.8941 31.3808 25.0972 29.6516C26.25 27.9945 26.25 26.2784 26.25 25.9766L26.25 25.7031ZM23.5156 25.1563C23.6607 25.1563 23.7998 25.2139 23.9023 25.3164C24.0049 25.419 24.0625 25.5581 24.0625 25.7031L24.0625 25.9766C24.0625 26.157 24.0614 27.3109 23.3013 28.4025C22.5903 29.4252 21.0481 30.625 17.5 30.625C13.9519 30.625 12.4097 29.4252 11.6988 28.4025C11.2104 27.687 10.9455 26.8427 10.9375 25.9766L10.9375 25.7031C10.9375 25.5581 10.9951 25.419 11.0977 25.3164C11.2002 25.2139 11.3393 25.1563 11.4844 25.1563L23.5156 25.1563Z" fill="#F24E1E"/>
</svg>
