<svg width="20" height="20" viewBox="0 0 20 20" fill="none" xmlns="http://www.w3.org/2000/svg">
<path d="M7.5 17.4996V11.333C7.5 10.8662 7.5 10.6329 7.59083 10.4546C7.67072 10.2978 7.79821 10.1703 7.95501 10.0904C8.13327 9.99962 8.36662 9.99962 8.83333 9.99962H11.1667C11.6334 9.99962 11.8667 9.99962 12.045 10.0904C12.2018 10.1703 12.3293 10.2978 12.4092 10.4546C12.5 10.6329 12.5 10.8662 12.5 11.333V17.4996M9.18141 2.30297L3.52949 6.6989C3.15168 6.99276 2.96278 7.13968 2.82669 7.32368C2.70614 7.48667 2.61633 7.67029 2.56169 7.86551C2.5 8.0859 2.5 8.32521 2.5 8.80384V14.833C2.5 15.7664 2.5 16.2331 2.68166 16.5896C2.84144 16.9032 3.09641 17.1582 3.41002 17.318C3.76654 17.4996 4.23325 17.4996 5.16667 17.4996H14.8333C15.7668 17.4996 16.2335 17.4996 16.59 17.318C16.9036 17.1582 17.1586 16.9032 17.3183 16.5896C17.5 16.2331 17.5 15.7664 17.5 14.833V8.80384C17.5 8.32521 17.5 8.0859 17.4383 7.86551C17.3837 7.67029 17.2939 7.48667 17.1733 7.32368C17.0372 7.13968 16.8483 6.99276 16.4705 6.69891L10.8186 2.30297C10.5258 2.07526 10.3794 1.9614 10.2178 1.91763C10.0752 1.87902 9.92484 1.87902 9.78221 1.91763C9.62057 1.9614 9.47418 2.07526 9.18141 2.30297Z" stroke="#98A2B3" stroke-width="1.66667" stroke-linecap="round" stroke-linejoin="round"/>
</svg>
