<svg width="35" height="35" viewBox="0 0 35 35" fill="none" xmlns="http://www.w3.org/2000/svg">
<path d="M17.5007 2.91651L17.5007 8.74984M23.334 5.83317L23.334 8.74984M11.6673 5.83317L11.6673 8.74984M7.29232 9.47901C6.16357 9.72109 5.31044 10.125 4.62649 10.7988C2.91732 12.4803 2.91732 15.1884 2.91732 20.6003C2.91732 26.0121 2.91732 28.7203 4.62649 30.4003C6.3342 32.0832 9.08461 32.0832 14.584 32.0832L20.4173 32.0832C25.9167 32.0832 28.6671 32.0832 30.3748 30.4017C32.0825 28.7203 32.084 26.0121 32.084 20.6003C32.084 15.1884 32.084 12.4803 30.3748 10.8003C29.6894 10.125 28.8377 9.72109 27.709 9.479M8.02149 20.4165L8.03461 20.4165M26.9652 20.4165L26.9784 20.4165" stroke="#F24E1E" stroke-width="2.1875" stroke-linecap="round" stroke-linejoin="round"/>
<path d="M13.8548 20.4163C13.8548 21.3833 14.2389 22.3106 14.9227 22.9943C15.6064 23.6781 16.5337 24.0622 17.5007 24.0622C18.4676 24.0622 19.3949 23.6781 20.0786 22.9943C20.7624 22.3106 21.1465 21.3833 21.1465 20.4163C21.1465 19.4494 20.7624 18.5221 20.0786 17.8383C19.3949 17.1546 18.4676 16.7705 17.5007 16.7705C16.5337 16.7705 15.6064 17.1546 14.9227 17.8383C14.2389 18.5221 13.8548 19.4494 13.8548 20.4163Z" stroke="#F24E1E" stroke-width="2.1875" stroke-linecap="round" stroke-linejoin="round"/>
</svg>
