<svg width="36" height="36" viewBox="0 0 36 36" fill="none" xmlns="http://www.w3.org/2000/svg">
<path d="M18 14.6667V21.3333M14.6667 18H21.3333M14.5 25.5H21.5C22.9001 25.5 23.6002 25.5 24.135 25.2275C24.6054 24.9878 24.9878 24.6054 25.2275 24.135C25.5 23.6002 25.5 22.9001 25.5 21.5V14.5C25.5 13.0999 25.5 12.3998 25.2275 11.865C24.9878 11.3946 24.6054 11.0122 24.135 10.7725C23.6002 10.5 22.9001 10.5 21.5 10.5H14.5C13.0999 10.5 12.3998 10.5 11.865 10.7725C11.3946 11.0122 11.0122 11.3946 10.7725 11.865C10.5 12.3998 10.5 13.0999 10.5 14.5V21.5C10.5 22.9001 10.5 23.6002 10.7725 24.135C11.0122 24.6054 11.3946 24.9878 11.865 25.2275C12.3998 25.5 13.0999 25.5 14.5 25.5Z" stroke="#667085" stroke-width="1.66667" stroke-linecap="round" stroke-linejoin="round"/>
</svg>
