<svg width="15" height="17" viewBox="0 0 15 17" fill="none" xmlns="http://www.w3.org/2000/svg">
<path d="M7.5 0.583496C9.38967 0.583496 11.2019 1.33416 12.5381 2.67036C13.8743 4.00656 14.625 5.81883 14.625 7.7085C14.625 10.1421 13.2982 12.1339 11.9001 13.5629C11.2016 14.2691 10.4394 14.9094 9.62325 15.4755L9.286 15.7051L9.12767 15.8104L8.82921 16.0004L8.56321 16.1627L8.23388 16.3543C8.01034 16.4819 7.75739 16.549 7.5 16.549C7.24261 16.549 6.98966 16.4819 6.76613 16.3543L6.43679 16.1627L6.02513 15.9094L5.87313 15.8104L5.54854 15.5943C4.66808 14.9986 3.84797 14.3182 3.09992 13.5629C1.70183 12.1331 0.375 10.1421 0.375 7.7085C0.375 5.81883 1.12567 4.00656 2.46186 2.67036C3.79806 1.33416 5.61033 0.583496 7.5 0.583496ZM7.5 5.3335C7.18811 5.3335 6.87928 5.39493 6.59113 5.51428C6.30298 5.63364 6.04116 5.80858 5.82062 6.02912C5.60008 6.24966 5.42514 6.51147 5.30579 6.79962C5.18643 7.08777 5.125 7.39661 5.125 7.7085C5.125 8.02039 5.18643 8.32922 5.30579 8.61737C5.42514 8.90552 5.60008 9.16734 5.82062 9.38788C6.04116 9.60841 6.30298 9.78336 6.59113 9.90271C6.87928 10.0221 7.18811 10.0835 7.5 10.0835C8.12989 10.0835 8.73398 9.83327 9.17938 9.38788C9.62478 8.94248 9.875 8.33839 9.875 7.7085C9.875 7.07861 9.62478 6.47452 9.17938 6.02912C8.73398 5.58372 8.12989 5.3335 7.5 5.3335Z" fill="white"/>
</svg>
