<svg width="46" height="32" viewBox="0 0 46 32" fill="none" xmlns="http://www.w3.org/2000/svg">
<rect x="0.5" y="0.5" width="45" height="31" rx="5.5" fill="white"/>
<path fill-rule="evenodd" clip-rule="evenodd" d="M22.9053 22.4396C21.3266 23.7704 19.2787 24.5737 17.0409 24.5737C12.0478 24.5737 8 20.5741 8 15.6404C8 10.7066 12.0478 6.70703 17.0409 6.70703C19.2787 6.70703 21.3266 7.51036 22.9053 8.84109C24.484 7.51036 26.5319 6.70703 28.7697 6.70703C33.7628 6.70703 37.8106 10.7066 37.8106 15.6404C37.8106 20.5741 33.7628 24.5737 28.7697 24.5737C26.5319 24.5737 24.484 23.7704 22.9053 22.4396Z" fill="#ED0006"/>
<path fill-rule="evenodd" clip-rule="evenodd" d="M22.9062 22.4396C24.8502 20.8011 26.0828 18.363 26.0828 15.6404C26.0828 12.9178 24.8502 10.4796 22.9062 8.84108C24.485 7.51036 26.5329 6.70703 28.7706 6.70703C33.7638 6.70703 37.8115 10.7066 37.8115 15.6404C37.8115 20.5741 33.7638 24.5737 28.7706 24.5737C26.5329 24.5737 24.485 23.7704 22.9062 22.4396Z" fill="#F9A000"/>
<path fill-rule="evenodd" clip-rule="evenodd" d="M22.9031 22.4383C24.847 20.7998 26.0796 18.3617 26.0796 15.6391C26.0796 12.9165 24.847 10.4784 22.9031 8.83984C20.9592 10.4784 19.7266 12.9165 19.7266 15.6391C19.7266 18.3617 20.9592 20.7998 22.9031 22.4383Z" fill="#FF5E00"/>
<rect x="0.5" y="0.5" width="45" height="31" rx="5.5" stroke="#F2F4F7"/>
</svg>
