<svg width="22" height="22" viewBox="0 0 22 22" fill="none" xmlns="http://www.w3.org/2000/svg">
<path d="M7.5006 9.15471C7.5006 8.92265 7.59279 8.70009 7.75689 8.536C7.92098 8.3719 8.14354 8.27971 8.3756 8.27971H13.6256C13.8577 8.27971 14.0802 8.3719 14.2443 8.536C14.4084 8.70009 14.5006 8.92265 14.5006 9.15471C14.5006 9.38678 14.4084 9.60934 14.2443 9.77343C14.0802 9.93753 13.8577 10.0297 13.6256 10.0297H8.3756C8.14354 10.0297 7.92098 9.93753 7.75689 9.77343C7.59279 9.60934 7.5006 9.38678 7.5006 9.15471ZM8.3756 11.7797C8.14354 11.7797 7.92098 11.8719 7.75689 12.036C7.59279 12.2001 7.5006 12.4226 7.5006 12.6547C7.5006 12.8868 7.59279 13.1093 7.75689 13.2734C7.92098 13.4375 8.14354 13.5297 8.3756 13.5297H11.8756C12.1077 13.5297 12.3302 13.4375 12.4943 13.2734C12.6584 13.1093 12.7506 12.8868 12.7506 12.6547C12.7506 12.4226 12.6584 12.2001 12.4943 12.036C12.3302 11.8719 12.1077 11.7797 11.8756 11.7797H8.3756ZM0.500604 10.9047C0.501051 8.59305 1.26435 6.34613 2.67209 4.51254C4.07983 2.67894 6.05332 1.36116 8.28643 0.763605C10.5195 0.166054 12.8874 0.322141 15.0228 1.20765C17.1581 2.09316 18.9415 3.6586 20.0964 5.66112C21.2513 7.66364 21.713 9.99131 21.41 12.283C21.107 14.5748 20.0562 16.7024 18.4206 18.336C16.785 19.9696 14.656 21.0177 12.3639 21.3179C10.0718 21.618 7.74468 21.1533 5.7436 19.996L1.6521 21.361C1.50094 21.4114 1.33887 21.4197 1.18337 21.3848C1.02788 21.3499 0.884868 21.2732 0.769776 21.1629C0.654684 21.0527 0.571881 20.9131 0.530304 20.7593C0.488727 20.6054 0.489954 20.4432 0.533854 20.29L1.77985 15.9307C0.93989 14.3887 0.500057 12.6607 0.500604 10.9047ZM11.0006 2.15471C9.45567 2.15462 7.93825 2.56357 6.6026 3.34C5.26695 4.11643 4.16068 5.23266 3.39624 6.57521C2.63181 7.91777 2.23647 9.43879 2.25041 10.9837C2.26435 12.5285 2.68707 14.0422 3.4756 15.3707C3.53627 15.4733 3.57533 15.5873 3.59038 15.7056C3.60542 15.8238 3.59614 15.9439 3.5631 16.0585L2.67235 19.1735L5.57385 18.2075C5.69708 18.1663 5.82792 18.1532 5.95686 18.1689C6.08581 18.1847 6.20964 18.2289 6.31935 18.2985C7.46608 19.0242 8.76588 19.4732 10.116 19.6101C11.4662 19.747 12.8297 19.5679 14.0987 19.0871C15.3677 18.6063 16.5075 17.8369 17.428 16.8397C18.3485 15.8426 19.0244 14.645 19.4024 13.3416C19.7803 12.0382 19.8499 10.6648 19.6057 9.32989C19.3614 7.99498 18.81 6.73518 17.9951 5.65007C17.1801 4.56495 16.1239 3.68427 14.91 3.07763C13.6961 2.471 12.3577 2.15503 11.0006 2.15471Z" fill="#F24E1E"/>
</svg>
