<svg width="36" height="36" viewBox="0 0 36 36" fill="none" xmlns="http://www.w3.org/2000/svg">
<g clip-path="url(#clip0_80_10)">
<path fill-rule="evenodd" clip-rule="evenodd" d="M18.25 5.91683C15.5039 5.91683 12.8703 7.00771 10.9285 8.94949C8.98672 10.8913 7.89583 13.5249 7.89583 16.271V19.2293C7.89583 19.6216 7.73999 19.9979 7.46259 20.2753C7.1852 20.5527 6.80897 20.7085 6.41667 20.7085C6.02437 20.7085 5.64814 20.5527 5.37074 20.2753C5.09334 19.9979 4.9375 19.6216 4.9375 19.2293V16.271C4.9375 12.7403 6.34006 9.35422 8.83664 6.85764C11.3332 4.36106 14.7193 2.9585 18.25 2.9585C21.7807 2.9585 25.1668 4.36106 27.6634 6.85764C30.1599 9.35422 31.5625 12.7403 31.5625 16.271V20.7085C31.5435 22.0124 31.4462 23.3139 31.2711 24.6061C30.9915 26.6547 30.4058 29.4001 29.0479 31.2106C28.8125 31.5244 28.4621 31.7319 28.0738 31.7874C27.6854 31.8429 27.2909 31.7418 26.9771 31.5064C26.6632 31.271 26.4558 30.9206 26.4003 30.5323C26.3448 30.1439 26.4459 29.7494 26.6812 29.4356C27.5421 28.2877 28.0658 26.2258 28.3409 24.2067C28.4945 23.0465 28.5824 21.8786 28.6042 20.7085V16.271C28.6042 13.5249 27.5133 10.8913 25.5715 8.94949C23.6297 7.00771 20.9961 5.91683 18.25 5.91683ZM18.25 11.8335C17.0731 11.8335 15.9444 12.301 15.1122 13.1332C14.28 13.9654 13.8125 15.0941 13.8125 16.271V17.7502C13.8125 19.1406 13.3628 20.8564 12.5286 22.4214C11.6899 23.9937 10.3853 25.5542 8.55702 26.4684C8.38266 26.5624 8.19119 26.6204 7.99398 26.6391C7.79676 26.6577 7.59781 26.6365 7.40894 26.5768C7.22006 26.517 7.04511 26.42 6.89446 26.2913C6.74381 26.1627 6.62053 26.0051 6.53194 25.8279C6.44335 25.6508 6.39125 25.4576 6.37874 25.2599C6.36622 25.0622 6.39354 24.864 6.45908 24.6771C6.52462 24.4901 6.62704 24.3182 6.76027 24.1716C6.8935 24.025 7.05481 23.9067 7.23465 23.8236C8.36473 23.2586 9.27885 22.2306 9.91933 21.028C10.5642 19.821 10.8542 18.5785 10.8542 17.7502V16.271C10.8542 14.3095 11.6334 12.4283 13.0204 11.0414C14.4073 9.65436 16.2885 8.87516 18.25 8.87516C20.2115 8.87516 22.0927 9.65436 23.4796 11.0414C24.8666 12.4283 25.6458 14.3095 25.6458 16.271V17.9232C25.6458 22.2483 25.6473 28.0555 20.6758 32.1987C20.5274 32.3285 20.3545 32.4274 20.1672 32.4894C19.98 32.5515 19.7823 32.5755 19.5857 32.56C19.389 32.5445 19.1975 32.4898 19.0223 32.3992C18.8471 32.3086 18.6918 32.1838 18.5656 32.0323C18.4393 31.8808 18.3446 31.7056 18.2871 31.5169C18.2295 31.3283 18.2103 31.13 18.2305 30.9338C18.2507 30.7376 18.31 30.5474 18.4048 30.3745C18.4996 30.2015 18.628 30.0493 18.7825 29.9267C22.6195 26.7287 22.6875 22.2823 22.6875 17.7502V16.271C22.6875 15.0941 22.22 13.9654 21.3878 13.1332C20.5556 12.301 19.4269 11.8335 18.25 11.8335ZM19.7292 17.0106C19.7292 16.6183 19.5733 16.242 19.2959 15.9647C19.0185 15.6873 18.6423 15.5314 18.25 15.5314C17.8577 15.5314 17.4815 15.6873 17.2041 15.9647C16.9267 16.242 16.7708 16.6183 16.7708 17.0106C16.7708 18.7811 16.5919 21.0073 15.9218 23.0145C15.2562 25.0173 14.1557 26.6488 12.4117 27.5215C12.2319 27.6046 12.0706 27.723 11.9374 27.8696C11.8041 28.0162 11.7017 28.188 11.6362 28.375C11.5706 28.5619 11.5433 28.7601 11.5558 28.9578C11.5683 29.1555 11.6204 29.3487 11.709 29.5259C11.7976 29.703 11.9209 29.8606 12.0715 29.9893C12.2222 30.1179 12.3971 30.2149 12.586 30.2747C12.7749 30.3344 12.9738 30.3556 13.1711 30.337C13.3683 30.3184 13.5597 30.2603 13.7341 30.1663C16.4277 28.8202 17.9172 26.3855 18.7292 23.9494C19.5384 21.5191 19.7292 18.9379 19.7292 17.0106Z" fill="#F24E1E"/>
</g>
<defs>
<clipPath id="clip0_80_10">
<rect width="35.5" height="35.5" fill="white" transform="translate(0.5)"/>
</clipPath>
</defs>
</svg>
