<svg width="48" height="48" viewBox="0 0 48 48" fill="none" xmlns="http://www.w3.org/2000/svg">
<path d="M4.99907 18H42.9991M19.9991 6L15.9991 18L23.9991 41L31.9991 18L27.9991 6M25.2282 40.525L43.1455 19.0243C43.4492 18.6599 43.601 18.4777 43.659 18.2743C43.7102 18.095 43.7102 17.905 43.659 17.7257C43.601 17.5223 43.4492 17.3401 43.1455 16.9757L34.4788 6.5757C34.3025 6.36409 34.2143 6.25828 34.1062 6.18221C34.0104 6.11481 33.9036 6.06476 33.7905 6.03434C33.6629 6 33.5251 6 33.2497 6H14.7485C14.473 6 14.3353 6 14.2076 6.03434C14.0946 6.06476 13.9877 6.11481 13.8919 6.18221C13.7838 6.25828 13.6957 6.36409 13.5193 6.57571L4.85265 16.9757C4.54899 17.3401 4.39717 17.5223 4.33915 17.7257C4.28799 17.905 4.28799 18.095 4.33915 18.2743C4.39717 18.4777 4.54899 18.6599 4.85265 19.0243L22.7699 40.525C23.192 41.0315 23.4031 41.2848 23.6558 41.3772C23.8775 41.4582 24.1207 41.4582 24.3424 41.3772C24.5951 41.2848 24.8061 41.0316 25.2282 40.525Z" stroke="#EF5E17" stroke-width="3" stroke-linecap="round" stroke-linejoin="round"/>
</svg>
