<svg width="33" height="32" viewBox="0 0 33 32" fill="none" xmlns="http://www.w3.org/2000/svg">
<g style="mix-blend-mode:multiply">
<rect x="0.5" width="32" height="32" rx="6" fill="#FACFB9"/>
<path d="M13.9173 17.3338C14.2134 18.484 15.2574 19.3338 16.5 19.3338C17.7426 19.3338 18.7866 18.484 19.0827 17.3338M15.8451 9.84315L11.3236 13.3599C11.0213 13.595 10.8702 13.7125 10.7614 13.8597C10.6649 13.9901 10.5931 14.137 10.5494 14.2932C10.5 14.4695 10.5 14.661 10.5 15.0439V19.8671C10.5 20.6139 10.5 20.9872 10.6453 21.2725C10.7732 21.5233 10.9771 21.7273 11.228 21.8552C11.5132 22.0005 11.8866 22.0005 12.6333 22.0005H20.3667C21.1134 22.0005 21.4868 22.0005 21.772 21.8552C22.0229 21.7273 22.2268 21.5233 22.3547 21.2725C22.5 20.9872 22.5 20.6139 22.5 19.8671V15.0439C22.5 14.661 22.5 14.4695 22.4506 14.2932C22.4069 14.137 22.3351 13.9901 22.2386 13.8597C22.1298 13.7125 21.9787 13.595 21.6764 13.3599L17.1549 9.84315C16.9207 9.66099 16.8035 9.5699 16.6742 9.53489C16.5601 9.504 16.4399 9.504 16.3258 9.53489C16.1965 9.5699 16.0793 9.66099 15.8451 9.84315Z" stroke="#EF5E17" stroke-width="1.33333" stroke-linecap="round" stroke-linejoin="round"/>
</g>
</svg>
