<svg width="33" height="32" viewBox="0 0 33 32" fill="none" xmlns="http://www.w3.org/2000/svg">
<g style="mix-blend-mode:multiply">
<rect x="0.5" width="32" height="32" rx="6" fill="#FACFB9"/>
<path d="M10.5 15.0439C10.5 14.661 10.5 14.4695 10.5494 14.2932C10.5931 14.137 10.6649 13.9901 10.7614 13.8597C10.8702 13.7125 11.0213 13.595 11.3236 13.3599L15.8451 9.84315C16.0793 9.66099 16.1965 9.5699 16.3258 9.53489C16.4399 9.504 16.5601 9.504 16.6742 9.53489C16.8035 9.5699 16.9207 9.66099 17.1549 9.84315L21.6764 13.3599C21.9787 13.595 22.1298 13.7125 22.2386 13.8597C22.3351 13.9901 22.4069 14.137 22.4506 14.2932C22.5 14.4695 22.5 14.661 22.5 15.0439V19.8671C22.5 20.6139 22.5 20.9872 22.3547 21.2725C22.2268 21.5233 22.0229 21.7273 21.772 21.8552C21.4868 22.0005 21.1134 22.0005 20.3667 22.0005H12.6333C11.8866 22.0005 11.5132 22.0005 11.228 21.8552C10.9771 21.7273 10.7732 21.5233 10.6453 21.2725C10.5 20.9872 10.5 20.6139 10.5 19.8671V15.0439Z" stroke="#EF5E17" stroke-width="1.33333" stroke-linecap="round" stroke-linejoin="round"/>
</g>
</svg>
