<svg width="28" height="28" viewBox="0 0 28 28" fill="none" xmlns="http://www.w3.org/2000/svg">
<path d="M15.4595 0.0204158C16.7948 0.172666 18.0845 0.536666 18.977 1.56742C19.8608 2.58417 20.125 3.97892 20.125 5.59242C20.125 6.40967 19.9728 7.55067 19.8503 8.45717L19.824 8.65492H22.3125C23.3678 8.65492 24.367 8.80367 25.2315 9.23767C26.1205 9.68217 26.8258 10.4259 27.2213 11.3377C28.014 13.0842 27.9878 15.6199 27.5503 18.8907L27.4802 19.4262C27.2965 20.8087 27.139 22.0039 26.9325 22.9839C26.7033 24.0864 26.3813 25.0997 25.7635 25.9099C24.4475 27.6372 22.2355 27.9049 19.25 27.9049C16.016 27.9049 13.5905 27.3222 11.571 26.7622C11.2828 26.6828 11.0057 26.6052 10.7397 26.5294C9.58825 26.2039 8.63975 25.9344 7.721 25.8032C7.51889 26.4149 7.12901 26.9473 6.60682 27.3246C6.08464 27.702 5.45675 27.905 4.8125 27.9049H3.0625C2.25027 27.9049 1.47132 27.5823 0.896985 27.0079C0.322655 26.4336 0 25.6546 0 24.8424L0 11.7174C0 10.0269 1.372 8.65492 3.0625 8.65492H4.8125C5.34911 8.65486 5.87632 8.7958 6.34131 9.06361C6.80631 9.33143 7.19278 9.71673 7.462 10.1809C7.9135 9.99717 8.4945 9.71192 9.0685 9.29192C10.2428 8.43442 11.375 7.04317 11.375 4.71742V3.84242C11.375 1.73892 13.1145 -0.247334 15.4595 0.0204158ZM7.875 23.1799C9.10875 23.3339 10.3075 23.6769 11.501 24.0164L12.2727 24.2352C14.1908 24.7689 16.3573 25.2817 19.25 25.2817C22.3895 25.2817 23.24 24.8914 23.674 24.3209C23.9312 23.9832 24.157 23.4372 24.3635 22.4484C24.5473 21.5699 24.6925 20.4814 24.8797 19.0709L24.9497 18.5459C25.3872 15.2524 25.2805 13.4132 24.8307 12.4262C24.6842 12.0611 24.4091 11.7623 24.0572 11.5862C23.6932 11.4042 23.1472 11.2817 22.3125 11.2817H19.25C18.0495 11.2817 16.9837 10.2719 17.1395 8.94367C17.1815 8.60533 17.2258 8.2635 17.2725 7.91817C17.3862 7.06417 17.5 6.22067 17.5 5.59417C17.5 4.17842 17.248 3.58167 16.996 3.29117C16.7563 3.01467 16.2925 2.75917 15.162 2.62967C14.6247 2.56667 14 3.04267 14 3.84242V4.71742C14 8.08092 12.2885 10.1914 10.6172 11.4112C9.78078 12.0207 8.85601 12.4987 7.875 12.8287V23.1799ZM4.8125 11.2799H3.0625C2.94647 11.2799 2.83519 11.326 2.75314 11.4081C2.67109 11.4901 2.625 11.6014 2.625 11.7174V24.8424C2.625 25.0839 2.821 25.2799 3.0625 25.2799H4.8125C4.92853 25.2799 5.03981 25.2338 5.12186 25.1518C5.20391 25.0697 5.25 24.9584 5.25 24.8424V11.7174C5.25 11.6014 5.20391 11.4901 5.12186 11.4081C5.03981 11.326 4.92853 11.2799 4.8125 11.2799Z" fill="#F24E1E"/>
</svg>
