<svg width="47" height="46" viewBox="0 0 47 46" fill="none" xmlns="http://www.w3.org/2000/svg">
<rect x="3.5" y="3" width="40" height="40" rx="20" fill="#F2F4F7"/>
<path d="M20.1641 26.3333L23.4974 23M23.4974 23L26.8307 26.3333M23.4974 23V30.5M30.1641 26.9524C31.182 26.1117 31.8307 24.8399 31.8307 23.4167C31.8307 20.8854 29.7787 18.8333 27.2474 18.8333C27.0653 18.8333 26.8949 18.7383 26.8025 18.5814C25.7158 16.7374 23.7094 15.5 21.4141 15.5C17.9623 15.5 15.1641 18.2982 15.1641 21.75C15.1641 23.4718 15.8603 25.0309 16.9865 26.1613" stroke="#475467" stroke-width="1.66667" stroke-linecap="round" stroke-linejoin="round"/>
<rect x="3.5" y="3" width="40" height="40" rx="20" stroke="#F9FAFB" stroke-width="6"/>
</svg>
