<svg width="20" height="20" viewBox="0 0 20 20" fill="none" xmlns="http://www.w3.org/2000/svg">
<path d="M16.6654 17.5C16.6654 16.337 16.6654 15.7555 16.5218 15.2824C16.1987 14.217 15.365 13.3834 14.2996 13.0602C13.8265 12.9167 13.245 12.9167 12.082 12.9167H7.91537C6.7524 12.9167 6.17091 12.9167 5.69775 13.0602C4.63241 13.3834 3.79873 14.217 3.47556 15.2824C3.33203 15.7555 3.33203 16.337 3.33203 17.5M13.7487 6.25C13.7487 8.32107 12.0698 10 9.9987 10C7.92763 10 6.2487 8.32107 6.2487 6.25C6.2487 4.17893 7.92763 2.5 9.9987 2.5C12.0698 2.5 13.7487 4.17893 13.7487 6.25Z" stroke="#667085" stroke-width="1.66667" stroke-linecap="round" stroke-linejoin="round"/>
</svg>
