<svg width="36" height="36" viewBox="0 0 36 36" fill="none" xmlns="http://www.w3.org/2000/svg">
<g clip-path="url(#clip0_80_4)">
<path d="M18.2501 8.40527C11.3958 8.40527 4.98944 11.8105 1.14042 17.4946C0.970695 17.7462 0.852562 18.0289 0.792869 18.3264C0.733175 18.6239 0.733106 18.9303 0.792666 19.2279C0.852226 19.5254 0.970231 19.8082 1.13985 20.0598C1.30946 20.3114 1.52731 20.5269 1.78079 20.6937C2.17948 20.9668 2.61094 21.1211 3.06015 21.1211C3.80565 21.1211 4.573 20.7593 5.02358 20.0971C5.16558 19.8854 5.34035 19.7011 5.4919 19.499C6.40693 22.154 8.12827 24.4569 10.4155 26.0862C12.7028 27.7155 15.4418 28.5898 18.2501 28.587C21.0583 28.59 23.7974 27.7158 26.0848 26.0865C28.3721 24.4572 30.0934 22.1541 31.0082 19.499C31.1584 19.7025 31.3345 19.8854 31.4765 20.0971C32.1934 21.1593 33.6543 21.4119 34.7193 20.6937C34.973 20.5269 35.191 20.3114 35.3607 20.0597C35.5305 19.808 35.6486 19.5251 35.7083 19.2275C35.768 18.9298 35.768 18.6233 35.7084 18.3256C35.6488 18.0279 35.5308 17.745 35.3611 17.4933C33.4691 14.6953 30.9199 12.4038 27.9368 10.8197C24.9537 9.23554 21.6277 8.40563 18.2501 8.40527ZM18.2501 13.3548C19.4148 13.3577 20.5311 13.8217 21.3547 14.6453C22.1784 15.4689 22.6423 16.5852 22.6452 17.75C22.6423 18.9148 22.1784 20.031 21.3547 20.8546C20.5311 21.6783 19.4148 22.1423 18.2501 22.1451C17.0853 22.1423 15.969 21.6783 15.1454 20.8546C14.3218 20.031 13.8578 18.9148 13.8549 17.75C13.8578 16.5852 14.3218 15.4689 15.1454 14.6453C15.969 13.8217 17.0853 13.3577 18.2501 13.3548ZM23.6693 13.9952C25.9495 14.8144 27.9798 16.1648 29.6852 17.9206C28.4112 23.0518 23.7703 26.8817 18.2501 26.8817C12.7298 26.8817 8.08887 23.0518 6.81496 17.9206C8.5003 16.1874 10.5573 14.8596 12.8308 14.0375C12.155 15.0243 11.7614 16.1768 11.6924 17.3709C11.6234 18.5649 11.8816 19.7552 12.4393 20.8132C12.9969 21.8713 13.8328 22.7571 14.8568 23.3751C15.8808 23.9931 17.054 24.3199 18.2501 24.3202C19.113 24.3204 19.9675 24.1506 20.7648 23.8205C21.5621 23.4904 22.2865 23.0064 22.8968 22.3963C23.507 21.7862 23.9911 21.0618 24.3214 20.2646C24.6517 19.4674 24.8217 18.6129 24.8217 17.75C24.8316 16.4098 24.4293 15.099 23.6693 13.9952Z" fill="#EF5E17"/>
</g>
<defs>
<clipPath id="clip0_80_4">
<rect width="35.5" height="35.5" fill="white" transform="translate(0.5)"/>
</clipPath>
</defs>
</svg>
